# xmcd CD database file
#
# Track frame offsets:
#	187
#	16347
#	37127
#	56020
#	79035
#	100830
#	118237
#	132667
#	148607
#	168277
#	188022
#
# Disc length: 2759 seconds
#
# Revision: 0
# Processed by: cddbd v1.5.1PL2 Copyright (c) Steve Scherf et al.
# Submitted via: CDex 1.51
#
DISCID=980ac50b
DTITLE=QUJILA - 木星クラブ
DYEAR=1998
DGENRE=Rock
TTITLE0=ロックギター
TTITLE1=バースデイ -ポリバケツ、ダイアモンド入り-
TTITLE2=木星クラブ
TTITLE3=ホタル
TTITLE4=いっしょに帰ろ
TTITLE5=しゃぼん玉物語
TTITLE6=ジャングルポルカ
TTITLE7=アザミ
TTITLE8=日曜日のピエロ
TTITLE9=キツツキ
TTITLE10=夢見るための花
EXTD=YEAR: 1998
EXTT0=
EXTT1=
EXTT2=
EXTT3=
EXTT4=
EXTT5=
EXTT6=
EXTT7=
EXTT8=
EXTT9=
EXTT10=
PLAYORDER=
